<svg width="30" height="30" viewBox="0 0 30 30" fill="none" xmlns="http://www.w3.org/2000/svg">
<rect width="30" height="30" rx="10" fill="#5F69FF"/>
<path fill-rule="evenodd" clip-rule="evenodd" d="M13.2348 11.1435H14.787C14.9087 11.1435 15 11.0522 15 10.9305L11.9565 6.21304C11.8652 6.0913 11.6218 6 11.5304 6C11.5304 6 11.1652 6.0913 11.0739 6.21304L8 10.9C8 11.0218 8.0913 11.1131 8.21304 11.1131H9.82609" fill="white"/>
<path d="M13.2348 11.1435H14.787C14.9087 11.1435 15 11.0522 15 10.9305L11.9565 6.21304C11.8652 6.0913 11.6218 6 11.5304 6C11.5304 6 11.1652 6.0913 11.0739 6.21304L8 10.9C8 11.0218 8.0913 11.1131 8.21304 11.1131H9.82609" stroke="white" stroke-width="0.5"/>
<path fill-rule="evenodd" clip-rule="evenodd" d="M13.1739 10.5654V16.0133H9.79565V10.5654" fill="white"/>
<path d="M13.1739 10.5654V16.0133H9.79565V10.5654" stroke="white" stroke-width="0.5"/>
<path fill-rule="evenodd" clip-rule="evenodd" d="M20.2044 18.498H21.787C21.9087 18.498 22 18.5894 22 18.7111L18.9565 23.4285C18.8652 23.5502 18.6218 23.6415 18.5304 23.6415C18.5304 23.6415 18.1652 23.5502 18.0739 23.4285L15 18.7415C15 18.6198 15.0913 18.5285 15.213 18.5285H16.8261" fill="white"/>
<path d="M20.2044 18.498H21.787C21.9087 18.498 22 18.5894 22 18.7111L18.9565 23.4285C18.8652 23.5502 18.6218 23.6415 18.5304 23.6415C18.5304 23.6415 18.1652 23.5502 18.0739 23.4285L15 18.7415C15 18.6198 15.0913 18.5285 15.213 18.5285H16.8261" stroke="white" stroke-width="0.5"/>
<path fill-rule="evenodd" clip-rule="evenodd" d="M20.1435 19.0777V13.6299H16.7957V19.0777" fill="white"/>
<path d="M20.1435 19.0777V13.6299H16.7957V19.0777" stroke="white" stroke-width="0.5"/>
</svg>
